<svg width="1900" height="1380" viewBox="0 0 1900 1380" fill="none" xmlns="http://www.w3.org/2000/svg">
  <defs>
    <linearGradient id="bg" x1="160" y1="70" x2="1700" y2="1300" gradientUnits="userSpaceOnUse">
      <stop stop-color="#F8FAFC"/>
      <stop offset="1" stop-color="#EEF2FF"/>
    </linearGradient>
    <linearGradient id="hero" x1="0" y1="0" x2="1" y2="1">
      <stop stop-color="#0F172A"/>
      <stop offset="1" stop-color="#1D4ED8"/>
    </linearGradient>
    <linearGradient id="support" x1="0" y1="0" x2="1" y2="1">
      <stop stop-color="#ECFEFF"/>
      <stop offset="1" stop-color="#EEF2FF"/>
    </linearGradient>
    <filter id="shadow" x="-20%" y="-20%" width="140%" height="160%" filterUnits="objectBoundingBox">
      <feDropShadow dx="0" dy="10" stdDeviation="16" flood-color="#0F172A" flood-opacity="0.08"/>
    </filter>
    <filter id="soft" x="-20%" y="-20%" width="140%" height="160%" filterUnits="objectBoundingBox">
      <feDropShadow dx="0" dy="6" stdDeviation="12" flood-color="#0F172A" flood-opacity="0.05"/>
    </filter>
    <marker id="arrow" viewBox="0 0 12 12" refX="9" refY="6" markerWidth="12" markerHeight="12" orient="auto-start-reverse">
      <path d="M2 2L10 6L2 10V2Z" fill="#94A3B8"/>
    </marker>
    <style>
      .title { font: 700 32px 'SF Pro Display', 'PingFang SC', 'Microsoft YaHei', sans-serif; fill: #0F172A; }
      .subtitle { font: 500 14px 'SF Pro Text', 'PingFang SC', 'Microsoft YaHei', sans-serif; fill: #475569; letter-spacing: 0.2px; }
      .layerTag { font: 700 12px 'SF Pro Text', 'PingFang SC', 'Microsoft YaHei', sans-serif; fill: #334155; letter-spacing: 1.2px; }
      .sectionTitle { font: 700 15px 'SF Pro Text', 'PingFang SC', 'Microsoft YaHei', sans-serif; fill: #0F172A; }
      .cardTitleLight { font: 700 16px 'SF Pro Text', 'PingFang SC', 'Microsoft YaHei', sans-serif; fill: white; }
      .cardTitle { font: 700 16px 'SF Pro Text', 'PingFang SC', 'Microsoft YaHei', sans-serif; fill: #0F172A; }
      .cardMeta { font: 500 11px 'SF Pro Text', 'PingFang SC', 'Microsoft YaHei', sans-serif; fill: #64748B; letter-spacing: 0.5px; }
      .pill { font: 600 12px 'SF Pro Text', 'PingFang SC', 'Microsoft YaHei', sans-serif; fill: #334155; }
      .pillDark { font: 600 12px 'SF Pro Text', 'PingFang SC', 'Microsoft YaHei', sans-serif; fill: #E2E8F0; }
      .small { font: 500 11px 'SF Pro Text', 'PingFang SC', 'Microsoft YaHei', sans-serif; fill: #475569; }
      .smallLight { font: 500 11px 'SF Pro Text', 'PingFang SC', 'Microsoft YaHei', sans-serif; fill: #CBD5E1; }
      .legend { font: 600 11px 'SF Pro Text', 'PingFang SC', 'Microsoft YaHei', sans-serif; fill: #64748B; }
    </style>
  </defs>

  <rect width="1900" height="1380" fill="url(#bg)"/>
  <circle cx="1490" cy="150" r="250" fill="#DBEAFE" opacity="0.42"/>
  <circle cx="220" cy="1210" r="250" fill="#CCFBF1" opacity="0.35"/>
  <circle cx="1710" cy="1160" r="180" fill="#E9D5FF" opacity="0.18"/>

  <text x="110" y="82" class="title">Test Designer 核心工作流架构</text>
  <text x="110" y="110" class="subtitle">Modern minimal architecture diagram for the updated workflow from input gating to test-case delivery</text>

  <rect x="110" y="148" width="232" height="36" rx="18" fill="#FFFFFF" opacity="0.92"/>
  <circle cx="134" cy="166" r="6" fill="#2563EB"/>
  <text x="150" y="171" class="legend">Layered workflow / standards-aware / feedback-driven</text>

  <text x="110" y="215" class="layerTag">INPUT LAYER</text>
  <rect x="110" y="236" width="1670" height="126" rx="28" fill="#FFFFFF" opacity="0.78" stroke="#E2E8F0"/>
  <rect x="140" y="258" width="1610" height="82" rx="24" fill="#F8FAFC" stroke="#E2E8F0"/>
  <text x="166" y="290" class="sectionTitle">输入材料</text>
  <rect x="166" y="302" width="110" height="24" rx="12" fill="#DBEAFE"/>
  <text x="191" y="318" class="pill">data-source</text>
  <rect x="336" y="278" width="150" height="44" rx="14" fill="#FFFFFF" stroke="#CBD5E1"/>
  <text x="373" y="305" class="pill">PRD/需求文档</text>
  <rect x="502" y="278" width="164" height="44" rx="14" fill="#FFFFFF" stroke="#CBD5E1"/>
  <text x="540" y="305" class="pill">原型图/交互说明</text>
  <rect x="682" y="278" width="154" height="44" rx="14" fill="#FFFFFF" stroke="#CBD5E1"/>
  <text x="724" y="305" class="pill">TRD/技术文档</text>
  <rect x="852" y="278" width="166" height="44" rx="14" fill="#FFFFFF" stroke="#CBD5E1"/>
  <text x="885" y="305" class="pill">历史用例/缺陷</text>
  <rect x="1034" y="278" width="174" height="44" rx="14" fill="#FFFFFF" stroke="#CBD5E1"/>
  <text x="1072" y="305" class="pill">页面代码/Swagger</text>

  <text x="110" y="406" class="layerTag">PROCESSING LAYER</text>
  <rect x="110" y="426" width="1320" height="640" rx="34" fill="#FFFFFF" opacity="0.72" stroke="#E2E8F0"/>

  <rect x="150" y="460" width="250" height="154" rx="24" fill="url(#hero)" filter="url(#shadow)"/>
  <text x="178" y="490" class="cardMeta" fill="#93C5FD">STAGE 1</text>
  <text x="178" y="516" class="cardTitleLight">输入检测</text>
  <text x="178" y="536" class="smallLight">module: input-gating.md</text>
  <rect x="178" y="554" width="76" height="24" rx="12" fill="rgba(255,255,255,0.14)"/>
  <text x="196" y="570" class="pillDark">材料识别</text>
  <rect x="262" y="554" width="112" height="24" rx="12" fill="rgba(255,255,255,0.14)"/>
  <text x="278" y="570" class="pillDark">启动条件检查</text>
  <rect x="178" y="586" width="166" height="24" rx="12" fill="rgba(255,255,255,0.14)"/>
  <text x="197" y="602" class="pillDark">决策引擎: 继续 / 澄清</text>

  <rect x="440" y="460" width="360" height="154" rx="24" fill="#FFFFFF" stroke="#BFDBFE" filter="url(#soft)"/>
  <text x="468" y="490" class="cardMeta" fill="#2563EB">STAGE 2</text>
  <text x="468" y="516" class="cardTitle">并行分析</text>
  <text x="468" y="536" class="small">module: analysis-playbook.md</text>
  <rect x="468" y="552" width="142" height="26" rx="13" fill="#EFF6FF"/>
  <text x="486" y="569" class="pill">按输入源分析</text>
  <rect x="624" y="552" width="128" height="26" rx="13" fill="#F8FAFC"/>
  <text x="643" y="569" class="pill">按维度分析</text>
  <rect x="468" y="588" width="74" height="22" rx="11" fill="#F8FAFC"/>
  <text x="485" y="603" class="small">PRD</text>
  <rect x="548" y="588" width="74" height="22" rx="11" fill="#F8FAFC"/>
  <text x="561" y="603" class="small">原型</text>
  <rect x="628" y="588" width="74" height="22" rx="11" fill="#F8FAFC"/>
  <text x="645" y="603" class="small">TRD</text>
  <rect x="708" y="588" width="74" height="22" rx="11" fill="#F8FAFC"/>
  <text x="716" y="603" class="small">页面地图 / 用户角色 / 流程</text>

  <rect x="840" y="460" width="220" height="154" rx="24" fill="#FFFFFF" stroke="#C7D2FE" filter="url(#soft)"/>
  <text x="868" y="490" class="cardMeta" fill="#4F46E5">STAGE 3</text>
  <text x="868" y="516" class="cardTitle">合并与冲突处理</text>
  <rect x="868" y="552" width="74" height="24" rx="12" fill="#EEF2FF"/>
  <text x="886" y="568" class="pill">结果合并</text>
  <rect x="950" y="552" width="74" height="24" rx="12" fill="#EEF2FF"/>
  <text x="968" y="568" class="pill">冲突检测</text>
  <rect x="868" y="586" width="74" height="24" rx="12" fill="#EEF2FF"/>
  <text x="886" y="602" class="pill">缺口识别</text>

  <rect x="1100" y="460" width="290" height="154" rx="24" fill="#FFFFFF" stroke="#F5D0FE" filter="url(#soft)"/>
  <text x="1128" y="490" class="cardMeta" fill="#A21CAF">STAGE 4</text>
  <text x="1128" y="516" class="cardTitle">人工确认循环</text>
  <text x="1128" y="536" class="small">module: questioning-strategy.md</text>
  <rect x="1128" y="552" width="86" height="24" rx="12" fill="#FAE8FF"/>
  <text x="1148" y="568" class="pill">阻塞确认项</text>
  <rect x="1222" y="552" width="98" height="24" rx="12" fill="#FAE8FF"/>
  <text x="1238" y="568" class="pill">AskUserQuestion</text>
  <rect x="1128" y="586" width="84" height="24" rx="12" fill="#FAE8FF"/>
  <text x="1146" y="602" class="pill">等待回答循环</text>
  <rect x="1220" y="586" width="80" height="24" rx="12" fill="#FAE8FF"/>
  <text x="1238" y="602" class="pill">确认项处理器</text>

  <rect x="170" y="664" width="220" height="154" rx="24" fill="#FFFFFF" stroke="#BFDBFE" filter="url(#soft)"/>
  <text x="198" y="694" class="cardMeta" fill="#2563EB">STAGE 5</text>
  <text x="198" y="720" class="cardTitle">测试范围定义</text>
  <rect x="198" y="756" width="96" height="24" rx="12" fill="#EFF6FF"/>
  <text x="221" y="772" class="pill">覆盖范围定义</text>
  <rect x="198" y="788" width="96" height="24" rx="12" fill="#F8FAFC"/>
  <text x="221" y="804" class="pill">排除范围定义</text>
  <rect x="302" y="788" width="70" height="24" rx="12" fill="#FEF3C7"/>
  <text x="316" y="804" class="pill">残余风险</text>

  <rect x="430" y="664" width="250" height="154" rx="24" fill="#FFFFFF" stroke="#A7F3D0" filter="url(#soft)"/>
  <text x="458" y="694" class="cardMeta" fill="#059669">STAGE 5.2</text>
  <text x="458" y="720" class="cardTitle">专项标准入口</text>
  <text x="458" y="740" class="small">module: case-generation-rules.md</text>
  <rect x="458" y="756" width="86" height="24" rx="12" fill="#D1FAE5"/>
  <text x="476" y="772" class="pill">专项领域识别</text>
  <rect x="552" y="756" width="74" height="24" rx="12" fill="#D1FAE5"/>
  <text x="569" y="772" class="pill">资金标准</text>
  <rect x="458" y="788" width="74" height="24" rx="12" fill="#D1FAE5"/>
  <text x="475" y="804" class="pill">埋点标准</text>
  <rect x="540" y="788" width="98" height="24" rx="12" fill="#F8FAFC"/>
  <text x="558" y="804" class="pill">默认功能路径</text>

  <rect x="720" y="664" width="270" height="154" rx="24" fill="#FFFFFF" stroke="#93C5FD" filter="url(#soft)"/>
  <text x="748" y="694" class="cardMeta" fill="#2563EB">STAGE 5.5</text>
  <text x="748" y="720" class="cardTitle">生成准备</text>
  <text x="748" y="740" class="small">module: case-generation-rules.md</text>
  <rect x="748" y="756" width="74" height="24" rx="12" fill="#EFF6FF"/>
  <text x="765" y="772" class="pill">需求拆解</text>
  <rect x="830" y="756" width="86" height="24" rx="12" fill="#EFF6FF"/>
  <text x="848" y="772" class="pill">用户目标列出</text>
  <rect x="748" y="788" width="98" height="24" rx="12" fill="#EFF6FF"/>
  <text x="766" y="804" class="pill">流程与状态映射</text>
  <rect x="854" y="788" width="116" height="24" rx="12" fill="#EFF6FF"/>
  <text x="870" y="804" class="pill">类别与优先级判定</text>

  <rect x="1030" y="664" width="310" height="178" rx="24" fill="#FFFFFF" stroke="#BFDBFE" filter="url(#soft)"/>
  <text x="1058" y="694" class="cardMeta" fill="#2563EB">STAGE 6</text>
  <text x="1058" y="720" class="cardTitle">用例生成</text>
  <text x="1058" y="740" class="small">module: case-generation-rules.md</text>
  <rect x="1058" y="756" width="76" height="24" rx="12" fill="#DBEAFE"/>
  <text x="1076" y="772" class="pill">Case 映射</text>
  <rect x="1142" y="756" width="74" height="24" rx="12" fill="#DBEAFE"/>
  <text x="1159" y="772" class="pill">L1 基础功能</text>
  <rect x="1224" y="756" width="74" height="24" rx="12" fill="#DBEAFE"/>
  <text x="1241" y="772" class="pill">L2 核心场景</text>
  <rect x="1058" y="788" width="74" height="24" rx="12" fill="#DBEAFE"/>
  <text x="1075" y="804" class="pill">L3 影响分析</text>
  <rect x="1140" y="788" width="126" height="24" rx="12" fill="#F8FAFC"/>
  <text x="1160" y="804" class="pill">可追溯与层级标记</text>
  <rect x="1058" y="820" width="180" height="24" rx="12" fill="#F8FAFC"/>
  <text x="1076" y="836" class="pill">过滤: 无效 / 重复 / 精简 / 独立 / 清晰</text>

  <rect x="870" y="876" width="220" height="154" rx="24" fill="#FFF7ED" stroke="#FDBA74" filter="url(#soft)"/>
  <text x="898" y="906" class="cardMeta" fill="#EA580C">STAGE 6.5</text>
  <text x="898" y="932" class="cardTitle">自我检查</text>
  <text x="898" y="952" class="small">module: coverage-checklist.md</text>
  <rect x="898" y="968" width="82" height="24" rx="12" fill="#FFEDD5"/>
  <text x="914" y="984" class="pill">检查清单加载</text>
  <rect x="988" y="968" width="74" height="24" rx="12" fill="#FFEDD5"/>
  <text x="1005" y="984" class="pill">用例验证器</text>
  <rect x="898" y="1000" width="74" height="24" rx="12" fill="#FFEDD5"/>
  <text x="916" y="1016" class="pill">修订引擎</text>

  <rect x="1130" y="876" width="220" height="154" rx="24" fill="#F0FDF4" stroke="#86EFAC" filter="url(#soft)"/>
  <text x="1158" y="906" class="cardMeta" fill="#16A34A">STAGE 7</text>
  <text x="1158" y="932" class="cardTitle">覆盖自检与交付</text>
  <rect x="1158" y="968" width="86" height="24" rx="12" fill="#DCFCE7"/>
  <text x="1179" y="984" class="pill">最终覆盖检查</text>
  <rect x="1158" y="1000" width="72" height="24" rx="12" fill="#DCFCE7"/>
  <text x="1178" y="1016" class="pill">JSON 格式化</text>
  <rect x="1238" y="1000" width="74" height="24" rx="12" fill="#DCFCE7"/>
  <text x="1256" y="1016" class="pill">输出写入器</text>

  <text x="1490" y="406" class="layerTag">OUTPUT LAYER</text>
  <rect x="1480" y="426" width="300" height="276" rx="30" fill="#FFFFFF" opacity="0.8" stroke="#E2E8F0"/>
  <rect x="1520" y="462" width="220" height="200" rx="26" fill="url(#hero)" filter="url(#shadow)"/>
  <text x="1550" y="500" class="cardMeta" fill="#93C5FD">OUTPUT</text>
  <text x="1550" y="530" class="cardTitleLight">测试用例输出</text>
  <rect x="1550" y="560" width="108" height="32" rx="16" fill="rgba(255,255,255,0.16)"/>
  <text x="1574" y="581" class="pillDark">JSON 用例文件</text>
  <rect x="1550" y="604" width="108" height="32" rx="16" fill="rgba(255,255,255,0.16)"/>
  <text x="1574" y="625" class="pillDark">覆盖说明报告</text>

  <text x="110" y="1110" class="layerTag">SUPPORT LAYER</text>
  <rect x="110" y="1130" width="1670" height="190" rx="34" fill="url(#support)" stroke="#C7D2FE"/>

  <rect x="144" y="1162" width="430" height="118" rx="24" fill="#FFFFFF" opacity="0.86" stroke="#BFDBFE"/>
  <text x="172" y="1194" class="cardTitle">参考文件</text>
  <text x="172" y="1216" class="small">input-gating.md · analysis-playbook.md · questioning-strategy.md</text>
  <text x="172" y="1236" class="small">case-generation-rules.md · coverage-checklist.md · client-specific-checklist.md</text>

  <rect x="600" y="1162" width="320" height="118" rx="24" fill="#FFFFFF" opacity="0.86" stroke="#A7F3D0"/>
  <text x="628" y="1194" class="cardTitle">专项标准</text>
  <text x="628" y="1216" class="small">资金文本用例标准与准召口径</text>
  <text x="628" y="1236" class="small">埋点用例标准和打分方法</text>

  <rect x="946" y="1162" width="310" height="118" rx="24" fill="#FFFFFF" opacity="0.86" stroke="#BFDBFE"/>
  <text x="974" y="1194" class="cardTitle">模板文件</text>
  <text x="974" y="1216" class="small">case-template.md · clarification-template.md</text>
  <text x="974" y="1236" class="small">coverage-template.md</text>

  <rect x="1282" y="1162" width="464" height="118" rx="24" fill="#FFFFFF" opacity="0.86" stroke="#BFDBFE"/>
  <text x="1310" y="1194" class="cardTitle">质量护栏</text>
  <rect x="1310" y="1210" width="112" height="26" rx="13" fill="#E0F2FE"/>
  <text x="1334" y="1227" class="pill">用户视角优先</text>
  <rect x="1434" y="1210" width="96" height="26" rx="13" fill="#FCE7F3"/>
  <text x="1456" y="1227" class="pill">交互式阻塞</text>
  <rect x="1542" y="1210" width="80" height="26" rx="13" fill="#ECFCCB"/>
  <text x="1564" y="1227" class="pill">强制自检</text>
  <rect x="1634" y="1210" width="96" height="26" rx="13" fill="#FEF3C7"/>
  <text x="1656" y="1227" class="pill">不发明规则</text>

  <path d="M840 340V426" stroke="#94A3B8" stroke-width="2.5" marker-end="url(#arrow)"/>

  <path d="M400 537H440" stroke="#94A3B8" stroke-width="2.5" marker-end="url(#arrow)"/>
  <path d="M800 537H840" stroke="#94A3B8" stroke-width="2.5" marker-end="url(#arrow)"/>
  <path d="M1060 537H1100" stroke="#94A3B8" stroke-width="2.5" marker-end="url(#arrow)"/>

  <path d="M1245 614V640C1245 654 1234 664 1220 664H390" stroke="#94A3B8" stroke-width="2.5" marker-end="url(#arrow)"/>
  <path d="M390 741H430" stroke="#94A3B8" stroke-width="2.5" marker-end="url(#arrow)"/>
  <path d="M680 741H720" stroke="#94A3B8" stroke-width="2.5" marker-end="url(#arrow)"/>
  <path d="M990 741H1030" stroke="#94A3B8" stroke-width="2.5" marker-end="url(#arrow)"/>
  <path d="M1185 842V876" stroke="#94A3B8" stroke-width="2.5" marker-end="url(#arrow)"/>
  <path d="M1090 953H1130" stroke="#94A3B8" stroke-width="2.5" marker-end="url(#arrow)"/>
  <path d="M1350 953H1520" stroke="#94A3B8" stroke-width="2.5" marker-end="url(#arrow)"/>

  <path d="M980 1030V1060C980 1088 1008 1110 1036 1110H1216C1260 1110 1296 1074 1296 1030" stroke="#FB7185" stroke-width="2.5" stroke-dasharray="7 7" marker-end="url(#arrow)"/>
  <text x="1038" y="1098" class="legend">self-check fallback to human confirmation</text>

  <path d="M620 590C662 604 706 604 748 590" stroke="#60A5FA" stroke-width="2" stroke-dasharray="5 6" marker-end="url(#arrow)"/>
  <text x="626" y="580" class="legend">source + dimension integrate</text>

  <path d="M1096 780H1142" stroke="#94A3B8" stroke-width="2" stroke-dasharray="5 5" marker-end="url(#arrow)"/>
  <path d="M1216 780H1224" stroke="#94A3B8" stroke-width="2" stroke-dasharray="5 5" marker-end="url(#arrow)"/>
  <path d="M1096 800H1138" stroke="#94A3B8" stroke-width="2" stroke-dasharray="5 5" marker-end="url(#arrow)"/>
  <path d="M1298 800H1306" stroke="#94A3B8" stroke-width="2" stroke-dasharray="5 5" marker-end="url(#arrow)"/>
  <text x="1084" y="748" class="legend">Case mapping → L1 → L2 → L3 → traceability → filter</text>

  <path d="M786 1162V1066" stroke="#CBD5E1" stroke-width="2" marker-end="url(#arrow)"/>
  <path d="M1100 1162V1066" stroke="#CBD5E1" stroke-width="2" marker-end="url(#arrow)"/>
  <path d="M1600 1162V1066" stroke="#CBD5E1" stroke-width="2" marker-end="url(#arrow)"/>
  <path d="M760 1162V818C760 792 742 770 716 770H680" stroke="#86EFAC" stroke-width="2" stroke-dasharray="6 6" marker-end="url(#arrow)"/>
  <path d="M760 1162V842C760 820 778 802 800 802H1030" stroke="#86EFAC" stroke-width="2" stroke-dasharray="6 6" marker-end="url(#arrow)"/>
  <text x="770" y="1148" class="legend">specialized standards support standards entry and case generation</text>
  <text x="1640" y="1082" class="legend">quality guards support the whole processing layer</text>
</svg>
